PathFileType	4	(X/Y/Z)	C:\Users\chris\Documents\GitHub\baseballds\vids\pitch2_Sports2D\pitch2_Sports2D_m_person00.trc
DataRate	CameraRate	NumFrames	NumMarkers	Units	OrigDataRate	OrigDataStartFrame	OrigNumFrames
30	30	7	22	m	30	151	243
Frame#	Time	Hip			RHip			RKnee			RAnkle			RBigToe			RSmallToe			RHeel			LHip			LKnee			LAnkle			LBigToe			LSmallToe			LHeel			Neck			Head			Nose			RShoulder			RElbow			RWrist			LShoulder			LElbow			LWrist		
		X1	Y1	Z1	X2	Y2	Z2	X3	Y3	Z3	X4	Y4	Z4	X5	Y5	Z5	X6	Y6	Z6	X7	Y7	Z7	X8	Y8	Z8	X9	Y9	Z9	X10	Y10	Z10	X11	Y11	Z11	X12	Y12	Z12	X13	Y13	Z13	X14	Y14	Z14	X15	Y15	Z15	X16	Y16	Z16	X17	Y17	Z17	X18	Y18	Z18	X19	Y19	Z19	X20	Y20	Z20	X21	Y21	Z21	X22	Y22	Z22
151	5.033333333333333	0.42752064053327066	0.5785240060468204	0.0	0.448647324587231	0.5483534115854958	0.0	0.739754674625352	0.2413693689025951	0.0	0.9000592142641811	-0.13191177048704608	0.0	1.1331413225448674	-0.06695765144787798	0.0	1.1083565856596271	-0.10889867424944669	0.0	0.8908890327251476	-0.20660005821097724	0.0	0.47648107982588217	0.5694189903316773	0.0	0.7410943557633651	0.26867795980171655	0.0	0.8820168882177862	-0.022329161228527853	0.0	1.1024233019166079	-0.004638056302335614	0.0	1.0606097078872738	0.013988041384542054	0.0	0.874350658699532	-0.09188340864220096	0.0	0.15678654102188871	1.114943864402584	0.0	0.07728609185646353	1.3511775592350646	0.0	0.2482158138298021	1.260462573604272	0.0	0.18025955072672784	1.0016974552068012	0.0	0.3741971516574287	0.7525906867993812	0.0	0.5671240763625534	0.9269265699438245	0.0	0.18495329900009386	1.0185622872167808	0.0	0.3649272489884662	0.7961831358455651	0.0	0.5505175897959682	0.903853703155875	0.0
152	5.066666666666666	0.4259984623452622	0.5800548766044356	0.0	0.4495680620727672	0.5506630113137467	0.0	0.7415753297833041	0.24280460357595646	0.0	0.8998703257089987	-0.13371504720166066	0.0	1.1356129493464993	-0.06537384865122693	0.0	1.1085848898316606	-0.10922390506550846	0.0	0.8928852196968189	-0.2073166691005187	0.0	0.47409612894433545	0.56945298259385	0.0	0.7411339811675676	0.2676254495332086	0.0	0.8819123658141504	-0.021316908154101446	0.0	1.1003360386489092	-0.00579042360242372	0.0	1.0602474262337722	0.013147882801349585	0.0	0.8744430269689119	-0.08881233228360057	0.0	0.15639986208155457	1.1142800339291405	0.0	0.07969567852756677	1.3498655912501365	0.0	0.2500099007767989	1.2562853858457523	0.0	0.17980136557728948	1.001813574309911	0.0	0.37721660674088014	0.7517695713366617	0.0	0.5688015002814977	0.932568213025622	0.0	0.1831472463612762	1.0169984190428274	0.0	0.36476700159331227	0.7939011774979428	0.0	0.5489507450886383	0.9079688136850543	0.0
153	5.1	0.4272012155804718	0.5800238542551062	0.0	0.45186017319861305	0.5490103496378481	0.0	0.7414272225824192	0.24302089025246373	0.0	0.8971004632320704	-0.13351194503132632	0.0	1.1338463495977298	-0.07028169932282435	0.0	1.1040165828345705	-0.11295479429935985	0.0	0.8909888496961581	-0.20913630503216	0.0	0.4762310711837957	0.568378841211624	0.0	0.7430111038199084	0.2688060261682614	0.0	0.8831475866084589	-0.017147455267974638	0.0	1.097956671766293	-0.00450173147451572	0.0	1.059086050210987	0.015352005521419125	0.0	0.8782691124807687	-0.08284192048054356	0.0	0.15546950025624287	1.114058334108562	0.0	0.08378791861786572	1.3495939424568597	0.0	0.2525392220436085	1.2546500511504757	0.0	0.17997101807763216	1.0015745229317945	0.0	0.3787020745852359	0.7538929795337345	0.0	0.5725074658646048	0.9402976061931023	0.0	0.1811698521114318	1.0164877099195286	0.0	0.3646935196419871	0.7942299118607594	0.0	0.5438796206432445	0.9103036369767521	0.0
154	5.133333333333333	0.4301378091132593	0.5782177008204494	0.0	0.45327915766990107	0.5453530560966148	0.0	0.7409181980588313	0.24134171823933556	0.0	0.8956448655606655	-0.13375008862800736	0.0	1.1292452043993912	-0.07894468494829382	0.0	1.099283228533682	-0.11868006828611871	0.0	0.8885426859601957	-0.21135805202472227	0.0	0.4792297282528481	0.5684649617559473	0.0	0.7449307239775588	0.2690772066170077	0.0	0.8853757496404612	-0.017899822799169306	0.0	1.0970637422269682	-0.000999813704874058	0.0	1.0586529170899868	0.018209056934307404	0.0	0.8806367329851872	-0.08314853551168735	0.0	0.15457455804135564	1.11390669248228	0.0	0.0848258420863661	1.349217212472796	0.0	0.2529727385570388	1.256369674950673	0.0	0.17871041797985732	1.0000506517565284	0.0	0.3801989229597079	0.7579902176891383	0.0	0.5753351365482801	0.9453778578049054	0.0	0.1836676374459984	1.0181012957472995	0.0	0.36699598691190455	0.7979480273181447	0.0	0.5380326980826406	0.9084405256805803	0.0
155	5.166666666666667	0.43169451969856104	0.5764993607015232	0.0	0.45094422269281637	0.544004884954893	0.0	0.7412078436554487	0.2396852881110074	0.0	0.8962826517079112	-0.13406912869977475	0.0	1.1253962266242625	-0.08648150835326943	0.0	1.0962323628613415	-0.12524770213758687	0.0	0.8867861061838112	-0.21074573394050536	0.0	0.47948985433725616	0.5722007286390868	0.0	0.7455732180039655	0.2682044412715961	0.0	0.8867667182844868	-0.023534248399849342	0.0	1.0964764433043759	0.003076729025397974	0.0	1.0591813023160666	0.020045977830022297	0.0	0.8788051062638065	-0.08934371140647814	0.0	0.15335096787715263	1.1137508967370782	0.0	0.0812626847383033	1.3487064176078443	0.0	0.25038528071932303	1.259343822852418	0.0	0.17577734376297666	0.9981378986253931	0.0	0.38374419233287227	0.7617982539891757	0.0	0.5762961787387085	0.9462706330192966	0.0	0.18944973029197162	1.0213037654753356	0.0	0.37133376579866195	0.8037617918465334	0.0	0.5353095610204481	0.9066234455709612	0.0
156	5.2	0.4307881425147132	0.5756418989074724	0.0	0.4473850016958865	0.5452659441521662	0.0	0.7411391011891436	0.23955119096197014	0.0	0.8966096976524844	-0.13268828997024928	0.0	1.1240342302757793	-0.08972705992838187	0.0	1.094006417587957	-0.1292849237480464	0.0	0.8841980327142878	-0.20694428393965453	0.0	0.4780089523290557	0.5751800322043568	0.0	0.7456600359103762	0.2686916531753512	0.0	0.8870641513659194	-0.02659959607080445	0.0	1.095332140832241	0.004724571091607149	0.0	1.0588580027930408	0.020650618348699197	0.0	0.8772166116560295	-0.09268655217051036	0.0	0.1532188709147404	1.1138090323343868	0.0	0.07898162486871006	1.3491993594797602	0.0	0.24855001572160385	1.2607817270407624	0.0	0.1756063780606835	0.9982373039772774	0.0	0.38961686257856815	0.7638523638277154	0.0	0.5757507980985809	0.9448574844725783	0.0	0.19096347880309378	1.0224647768042479	0.0	0.3745471195155233	0.8070190266603493	0.0	0.5366761996182342	0.9099566335768559	0.0
157	5.233333333333333	0.42913993996174365	0.5753550870733184	0.0	0.44733649739330156	0.546962300635693	0.0	0.7402313407578293	0.24051428711451053	0.0	0.8962992907906334	-0.13146267020465524	0.0	1.1247931138449614	-0.08757691004783495	0.0	1.0940430578814662	-0.1270612290173562	0.0	0.8820726868279275	-0.20473766144174563	0.0	0.4761014861728384	0.5726444900192125	0.0	0.7466758048126448	0.2705026050163333	0.0	0.8879709763704842	-0.02697832123337448	0.0	1.0958569953075241	0.002421076622380009	0.0	1.057592851986709	0.019330350938255927	0.0	0.8793103479075568	-0.09243911547983757	0.0	0.15531473621811753	1.114496734147479	0.0	0.08202900392778466	1.35066354976854	0.0	0.25021680808760793	1.2600560531293907	0.0	0.1805263795032365	1.000679190005874	0.0	0.39738411801649265	0.7643233676137259	0.0	0.5742664052252624	0.9446810213676772	0.0	0.18488633504921007	1.019644753470743	0.0	0.3746547626526416	0.8042372345663923	0.0	0.539579185724909	0.9165144112917398	0.0
